<?xml version="1.0" encoding="utf-8"?>
<!-- Generator: Adobe Illustrator 23.0.3, SVG Export Plug-In . SVG Version: 6.00 Build 0)  -->
<svg version="1.1"
	 id="svg23" sodipodi:docname="logo.svg" xmlns:inkscape="http://www.inkscape.org/namespaces/inkscape" xmlns:sodipodi="http://sodipodi.sourceforge.net/DTD/sodipodi-0.dtd" xmlns:svg="http://www.w3.org/2000/svg"
	 xmlns="http://www.w3.org/2000/svg" xmlns:xlink="http://www.w3.org/1999/xlink" x="0px" y="0px" viewBox="0 0 308.8 304.9"
	 style="enable-background:new 0 0 308.8 304.9;" xml:space="preserve">
<style type="text/css">
	.st0{fill:url(#SVGID_1_);}
	.st1{fill:#FFFFFF;stroke:#666565;stroke-miterlimit:10;}
	.st2{fill:#FFFFFF;}
	.st3{opacity:0.53;enable-background:new    ;}
	.st4{fill:#FB9242;}
	.st5{fill:#4FD9B9;}
	.st6{fill:#313022;}
	.st7{fill:#1CC791;}
	.st8{fill:#FB891A;}
	.st9{fill:#EA6316;}
	.st10{fill:#F37619;}
	.st11{fill:#F48330;}
	.st12{fill:#22CD98;}
	.st13{fill:#1BA968;}
	.st14{fill:#ECA260;}
	.st15{fill:#28D6A3;}
	.st16{fill:#EF6B17;}
	.st17{opacity:0.6;enable-background:new    ;}
	.st18{fill:#29DCAC;}
	.st19{fill:#3CD8B3;}
	.st20{fill:#23CF97;}
	.st21{fill:#F87919;}
	.st22{fill:#FB8819;}
	.st23{fill:#F27218;}
	.st24{fill:#F47618;}
	.st25{fill:#A0220E;}
	.st26{fill:#ED5A15;}
	.st27{fill:#635E55;}
	.st28{fill:#2DE5B4;}
	.st29{fill:#33362F;}
	.st30{fill:#D17252;}
	.st31{fill:#2BE3A4;}
	.st32{fill:#F0622C;}
	.st33{fill:#EF4613;}
	.st34{opacity:0.27;enable-background:new    ;}
	.st35{opacity:0.38;enable-background:new    ;}
</style>
<sodipodi:namedview  bordercolor="#000000" borderopacity="0.25" id="namedview25" inkscape:deskcolor="#d1d1d1" inkscape:pagecheckerboard="0" inkscape:pageopacity="0.0" inkscape:showpageshadow="2" pagecolor="#ffffff">
	</sodipodi:namedview>
<linearGradient id="SVGID_1_" gradientUnits="userSpaceOnUse" x1="12.3902" y1="405.7237" x2="292.8595" y2="405.7237" gradientTransform="matrix(1 0 0 1 0 -254)">
	<stop  offset="0" style="stop-color:#343C47"/>
	<stop  offset="0.9621" style="stop-color:#1B2129"/>
</linearGradient>
<circle class="st0" cx="152.6" cy="151.7" r="140.2"/>
<g>
	<path class="st1" d="M132.3,3.3c17.6-2,35.7-1.9,53.1,1.9c34.2,7,65.5,26.7,87.2,54.1c18.3,23.1,29.5,51.5,31.9,80.7
		c1.8,24.6-1.9,49.8-11.9,72.3c-8,18.2-19.5,34.8-33.7,48.5c-16.8,16.2-37.4,28.5-59.8,35.4c-11.5,3.5-23.5,6.1-35.6,6.2
		c-13,0.3-26.2,0.6-39-2c-30.1-5.7-58.2-20.8-79.5-42.7C32.4,245,22.4,230,15,213.8C8.5,199,4.2,183.3,2.7,167.1
		c-0.3-8.9-0.3-17.9-0.1-26.8c0-3.1,0.4-6.2,0.9-9.2c4.5-32.2,20-62.8,43.2-85.6C69.6,22.8,100.1,7.2,132.3,3.3 M125.8,15.5
		c-1.1,0.3-2.3,0-3.2,0.7c-6.2,1.1-12,3.2-17.9,5.1c-2.2,1-4.6,1.8-6.8,2.8c-4.3,1.8-8.3,3.9-12.3,6.1C64.6,41.8,46.7,58.9,34,79.2
		c-1.5,2.4-2.9,4.9-4.3,7.3c-1.3,2.7-2.7,5.2-3.9,7.9c-0.9,1.8-1.6,3.7-2.4,5.5c-3.6,8.8-6.4,18.1-8.1,27.5
		c-2.1,11.6-2.6,23.4-1.9,35.1h0.1c0.6,11.5,3.3,22.8,6.5,33.8l0.4-0.2c0,1.7,1,3.1,1.4,4.7c1,2.3,1.8,4.6,2.8,6.8
		c0.9,2,1.8,3.9,2.8,6c0.4,0.9,0.9,1.6,1.3,2.4c1,1.7,1.8,3.3,2.8,5c2.9,5.1,6.2,9.8,9.5,14.7l0.3,0.1c0.5,0.7,1.1,1.6,1.5,2.4h0.3
		c0.5,1.2,1.5,1.9,2.1,3.1h0.2c0.6,1.4,1.9,2.2,2.8,3.4c0.1,0.2,0.4,0.5,0.5,0.7c2.4,3.1,5.7,5.5,8.1,8.6c0.3,0,1,0.1,1.2,0.1
		c-0.5,0.9-0.2,1.3,1,1.2l-0.2,0.7l0.9-0.2l-0.2,0.7l0.7-0.1v0.9l0.6-0.3v0.6c1.4,0.6,2.1,2.3,3.6,2.7v0.4c1.1,0.2,1.4,1.4,2.4,1.5
		l-0.1,0.4c1.1,0.1,1.6,1.1,2.6,1.4v0.4c2.9,1.4,5.1,3.7,8,5.1v0.4c0.6,0.2,1.4,0.4,2,0.7l-0.2,0.7c0.3-0.1,0.9-0.2,1.1-0.3l0.1,0.6
		c0.6,0.2,1.4,0.5,2,0.7l-0.1,0.7c0.2-0.1,0.7-0.3,1.1-0.4l0.1,0.6c0.7,0.3,1.4,0.6,2.1,1c0.5,0.7,1.2,1.2,2.1,1.1v0.7
		c0.3-0.1,0.9-0.2,1.2-0.3l0.1,0.9c0.3-0.1,0.9-0.2,1.1-0.3l0.1,0.9c0.3-0.1,0.9-0.2,1.1-0.3l0.1,0.9c0.3-0.1,0.9-0.2,1.2-0.3
		l0.1,0.9c0.3-0.1,0.9-0.2,1.2-0.3v0.7c1.9,0.1,3.4,1.5,5.2,2c1.2,0.6,2.6,0.7,3.6,1.6c1,0.2,1.8,0.4,2.7,0.7
		c4,1.6,8.3,2.8,12.4,3.9c22.2,5.6,45.7,6.2,68,1c0.9-0.2,1.7-0.3,2.4-0.6c1.3-0.3,2.6-0.6,3.8-1c0.9-0.3,1.8-0.6,2.8-1
		c3.1-0.9,6.2-1.8,9-3.2c0.2,0,0.5,0.1,0.7,0.1c1-0.6,2-1.1,3.1-1.4c0.5-0.4,1.2-0.6,1.8-0.6l0.1-0.6c0.3,0.1,0.9,0.2,1.1,0.2
		l0.2-0.6c1.5-0.2,2.7-1.2,4.1-1.4v-0.6c0.3,0.1,0.9,0.2,1.2,0.3v-0.9c0.3,0,0.9,0.1,1.2,0.2l0.1-0.9c0.3,0.1,0.9,0.2,1.2,0.2v-0.6
		c0.6-0.2,1.3-0.4,1.8-0.7c0.5-0.2,1.1-0.5,1.5-0.7c0.6-0.7,1.5-1.1,2.3-1.5c1.3-0.7,2.3-1.7,3.7-2.1c0.6-0.5,1.4-1.2,2-1.7
		c0.2,0.1,0.6,0.2,1,0.3l-0.2-1l0.6,0.1c1.1-0.6,2.1-1.4,3.1-2.3c1.1-0.3,1.5-1.5,2.7-1.5l-0.3-0.5c1.1-0.1,1.6-1.3,2.7-1.4
		l-0.3-0.7l0.6,0.3c0.9-0.7,1.5-1.9,2.7-1.9l-0.3-0.4c1.4-0.2,1.9-2,3.4-2l-0.5-0.9l1,0.5l-0.2-1l0.6,0.2c3.4-3.4,6.9-6.7,10.2-10.1
		c0.9-0.9,1.9-1.6,2.2-2.8l0.7,0.2l-0.4-0.9h0.6c0.6-1.5,2.2-2.2,2.8-3.7l0.4,0.1c0.1-1.2,1.3-1.8,2-2.7l-0.3-0.7l0.9,0.4
		c-0.2-1.2,1.2-1.7,1.4-2.7c0.4-0.5,0.7-1.1,1.2-1.6c0.7-0.4,0.9-1.4,1.2-2l0.4,0.1c1.5-3.4,3.9-6.3,5.7-9.6l-0.5-0.1
		c0.2,0,0.6,0,1-0.1c0.1-0.4,0.3-1.2,0.5-1.6c1.1-2.2,2.8-4.4,3.3-6.9l0.2,0.3c0.7-1.7,1.7-3.4,2.2-5.2c0.1-0.1,0.3-0.2,0.4-0.3
		c0.1-1.2,0.6-2.1,1.2-3.2c0.9-2.6,2.1-5,2.7-7.7c0.1,0,0.3-0.1,0.4-0.2c0-1.2,0.4-2.2,0.7-3.3c7.5-24,8.1-50.1,2.1-74.6
		c-1.3-4.7-2.7-9.4-4.3-14c-0.4-1-0.9-2-1.2-3.1c-1-2.4-2.1-4.8-3.1-7.2c-0.2-0.4-0.5-1.2-0.7-1.5c-0.5-1.2-1.2-2.2-1.7-3.4
		c-0.4-0.9-0.9-1.6-1.3-2.3c-0.7-1.3-1.5-2.6-2.1-3.8c-0.6-1.1-1.2-2-1.8-3.1c-6.1-10-13.3-19.1-21.7-27.2
		c-6.1-6.1-12.8-11.4-19.8-16.3l-0.1,0.5l0.2-0.9c-2.1-0.6-3.7-2.2-5.7-3.3c-3.4-2.1-6.9-3.9-10.5-5.8c-0.3-0.1-1-0.4-1.3-0.6
		c-2.4-1.2-4.9-2.2-7.3-3.3c-0.7-0.3-1.6-0.6-2.3-1c-2.2-0.9-4.5-1.7-6.7-2.4c-2.7-0.9-5.2-1.7-8-2.4c-7.3-1.9-14.8-3.4-22.4-4.1
		l0.1-0.2c-5.2-0.1-10.4-0.9-15.7-0.7C143.5,13,134.6,13.7,125.8,15.5z"/>
	<path class="st2" d="M169.1,134.7c0.3,0.7,0.7,1.5,1.1,2.2c1,3.9-1.1,7.9-4,10.4c-2.2,1.9-5.3,2.3-8.2,2.3
		c-6.8,0.1-13.6-0.1-20.5,0.1c-0.9,0-1.8,0-2.7,0c1-0.2,1.9-0.3,2.9-0.3c7.3,0,14.7,0.1,22,0c5.2-0.1,9.9-4.7,10.3-9.8
		C170.2,137.9,169.7,136.2,169.1,134.7z"/>
	<path class="st2" d="M109.9,170.5c3-11.1,13.5-18.6,24.5-20.7c-3.6,1.2-7.2,2.1-10.5,4c-6.8,3.6-12.1,10-13.9,17.4
		c-2.2,8.3-0.5,16.9-1.4,25.4c0-6.8-0.1-13.6,0-20.4C109,174.5,109.4,172.5,109.9,170.5z"/>
</g>
<g>
	<path class="st3" d="M272.6,59.2c0.5,0.4,1.2,1,1.6,1.5c9.8,12.7,18.1,26.7,23.4,41.9c4.9,13.4,8.1,27.6,8.8,41.9
		c-0.1,1.8-0.3,3.5-0.6,5.3c-1.2-3.2,0.4-6.8-1.4-9.9C302.1,110.7,290.8,82.2,272.6,59.2z"/>
</g>
<g>
	<path class="st4" d="M51.1,114.6c1.6-0.5,3.3-0.1,5,0c36.5,0.1,72.9-0.1,109.3,0.1c3.2,1,6.6,1.6,9.2,3.6
		c-3.5-0.7-6.8-2.7-10.4-2.9c-2.3-0.2-4.6-0.3-6.9-0.3c-35,0.1-70.1-0.1-105,0.1c-0.5,4.6,0,9.2-0.4,13.8l-0.7,0.2
		C51.1,124.4,51.2,119.5,51.1,114.6z"/>
</g>
<g>
	<path class="st5" d="M205.7,118.7c5.8-3.3,12.7-4.6,19.4-4.5c10,0.1,20,0,29.9,0.1l-0.1,0.6c-7.7,0.6-15.4,0.1-23.2,0.3
		c-5.7,0.1-11.5-0.4-17.1,0.9c-4,1.1-7.9,2.8-11.3,5.1c-5.1,3.4-9.2,8.3-11.7,13.9c-1.6,3.1-2.4,6.5-2.9,9.9
		c-0.5,3.3-0.5,6.6-0.6,9.8c-0.7-3.3-0.4-6.6-0.2-9.9c0.4-3.6,1.4-7.2,3-10.4C194,127.7,199.2,122.2,205.7,118.7z"/>
</g>
<g>
	<path class="st6" d="M254.9,114.2l0.4,0.2c0.1,0.3,0.3,1,0.3,1.3c-0.1,2.8-0.3,5.6-0.1,8.4c0,2,0,3.9,0,6c-5.7-0.3-11.5,0-17.1-0.1
		c-5.7-0.1-11.6,0.9-17.3-0.1c2.6-0.3,5.1-0.3,7.7-0.3c8.7-0.1,17.5-0.2,26.3,0v-0.7c-0.1-4.6-0.1-9.2,0-13.8L254.9,114.2z"/>
</g>
<g>
	<path class="st7" d="M231.7,115.1c7.8-0.2,15.5,0.3,23.2-0.3c-0.1,4.6-0.1,9.2,0,13.8l-0.3-0.1c-6.1-1.2-12.3,0-18.5-0.6
		c-0.9-0.3-1.4-1-2.1-1.5c-3.9,0.4-8.3-0.2-11.5-2.7c-1,0.5-1.8,1.1-2.8,1.6c-1-1-1.7-2.2-2.9-2.9c-1.5-0.2-3.1,0-4.6-0.5
		c-1.4-0.4-2.8-1.3-4.3-1.5c-1.6,0.1-3.1,0.5-4.7,0.7c3.4-2.3,7.2-4.1,11.3-5.1C220.1,114.7,226,115.3,231.7,115.1z"/>
</g>
<g>
	<path class="st8" d="M52.3,115.3c35-0.1,70.1,0,105-0.1c2.3,0,4.6,0.1,6.9,0.3c-8.7,0.2-17.4,0-26,0.2c-11.9,0-23.8,0-35.7,0.2
		c-3.4-0.5-5.1,5.5-1.7,6.7c3.1,1.5,5.3,4.9,9,4.9c5.8,0,11.8,0.1,17.6,0.1c1.4,0,2.7,0.3,4,0.6c-8.7,0.5-17.3,0-26,0.5
		c-0.2,13.1,0.1,26.2-0.2,39.1c0,1.2,0.2,2.4,0.4,3.6c-0.1,1.1-0.1,2-0.2,3.1c0-1-0.1-2-0.1-3c-0.4,1.4-0.7,2.7-1.1,4
		c-0.6-2.2-0.5-4.9-2.1-6.8c-1.1-1.4-2.2-2.8-3.7-3.6c-2.4-1.4-4.6-3.3-6-5.6c-0.5-2-0.5-4.3-0.7-6.4c-0.3,4.9,0.1,9.9-0.7,14.8
		c-0.1-10.6,0-21.3,0-31.9c0-1.6-0.2-3.1-0.4-4.7c0.1-0.9,0.1-1.6,0.2-2.4c-13,0.2-26,0-39,0.1C52.3,124.5,51.7,119.8,52.3,115.3z"
		/>
</g>
<g>
	<path class="st9" d="M164.2,115.5c3.7,0.2,6.9,2.1,10.4,2.9l0.1,0.1c0.9,1.1,1.8,2,2.8,2.9c1.7,1.4,3,3.3,5,4.1l0,0
		c3.6,5.1,3,11.8,2.1,17.8c-0.2-2.3-0.3-4.7-0.2-7c-0.7,2.3-3,3.4-4.9,4.7c-3-1.2-5.3-3.4-7.2-6c-0.7,0.6-1.6,1.3-2.3,1.9
		c-0.3-0.7-0.6-1.5-1.1-2.2c-1.5-3.1-4.5-5.5-8.1-5.5c-18.4-0.1-36.8,0-55.1,0c0.7,6.4,0.2,12.8,0.3,19.1c0.1,7.7-0.1,15.4-0.6,23.1
		c-0.2-1.2-0.4-2.3-0.4-3.6c0.3-13.1,0-26.2,0.2-39.1c8.7-0.4,17.3,0,26-0.5c4.1,0.4,8.3,0.1,12.4,0.1c4.7-0.1,9.5,0.1,14.1-0.3
		c-4-0.6-8.2-0.7-12.1-1.9c-4.1-2-5.5-6.7-7.8-10.3C146.8,115.5,155.5,115.7,164.2,115.5z"/>
</g>
<g>
	<path class="st10" d="M100.6,122.5c-3.3-1.2-1.6-7.2,1.7-6.7c11.9-0.2,23.8-0.2,35.7-0.2c2.2,3.6,3.7,8.3,7.8,10.3
		c3.9,1.2,8.1,1.3,12.1,1.9c-4.7,0.5-9.5,0.3-14.1,0.3c-4.1,0-8.3,0.3-12.4-0.1c-1.3-0.3-2.7-0.6-4-0.6c-5.8,0-11.8,0-17.6-0.1
		C106,127.5,103.8,124,100.6,122.5z"/>
</g>
<g>
	<path class="st11" d="M174.8,118.4c3.3,1.5,5.6,4.3,7.8,7c-2-1-3.3-2.9-5-4.1C176.5,120.6,175.6,119.6,174.8,118.4z"/>
</g>
<g>
	<path class="st12" d="M203.3,121.2c1.6-0.2,3.1-0.6,4.7-0.7c1.5,0.2,2.8,1.1,4.3,1.5c1.5,0.5,3.1,0.3,4.6,0.5
		c1.2,0.6,1.9,1.9,2.9,2.9c0.9-0.5,1.8-1.1,2.8-1.6c3.2,2.6,7.5,3.1,11.5,2.7c0.6,0.5,1.3,1.2,2.1,1.5c6.2,0.7,12.3-0.5,18.5,0.6
		c-11.4,0.9-22.9-0.1-34.3,0.4c-4.8,0.3-9.1,2.8-12.5,6.1c-0.9,0.3-1.6,0.7-2.4,1.1c-1.4-2.1-4-2.1-6.3-2.2c-1.8,0-3.3-1.1-4.7-1.9
		c-0.6,1.2-1.2,2.7-2.6,3.1C194.1,129.5,198.2,124.6,203.3,121.2z"/>
</g>
<g>
	<path class="st13" d="M207.6,135.1c3.4-3.3,7.8-5.7,12.5-6.1c11.5-0.5,23,0.4,34.3-0.4l0.3,0.1v0.7c-8.7-0.2-17.5-0.1-26.3,0
		c-2.6-0.1-5.1,0-7.7,0.3c-10,0.3-18.4,10.1-17.6,20c-0.2,0.2-0.6,0.5-0.7,0.7C202.1,144.9,204,139.3,207.6,135.1z"/>
</g>
<g>
	<path class="st14" d="M90.1,134.7c0.1-1.1,0.3-2.1,0.5-3.2c0.2,1.6,0.4,3.1,0.4,4.7c-0.1,10.6-0.1,21.3,0,31.9
		c-0.3,3.1-1.2,6.3-3.1,8.8c-1,1.4-2.1,2.4-3.5,3.3c0.2-0.3,0.7-1,1.1-1.3c3-3.1,4.8-7.3,4.7-11.6C90.1,156.4,90.3,145.6,90.1,134.7
		z"/>
</g>
<g>
	<path class="st15" d="M191.6,135.1c1.4-0.4,1.8-1.9,2.6-3.1c1.4,0.9,2.9,1.9,4.7,1.9c2.2,0.1,4.9,0.1,6.3,2.2
		c0.9-0.4,1.6-0.7,2.4-1.1c-3.6,4.1-5.5,9.8-5,15.4c2-0.3,4-0.5,6.2-0.3c4.1,1.6,9-0.1,13,2c1.4,1.7,2.3,3.7,4.3,4.9
		c2.3,2.1,5.7,2.6,8.4,4.1c-0.1,0.3-0.2,0.9-0.2,1.2c-7.8,0-15.5-0.1-23.3-0.1c-3.5,0.1-6.9-0.9-10.3-1.7c-1.8-0.3-3-2-4.6-2.8
		c-1.1-0.6-2.7-1-3.1-2.4c-1-2.3-1.9-4.8-3.2-7c-0.1,1.2-0.3,2.4-0.4,3.7c0-2.3-0.2-4.7-0.5-7C189.2,141.6,190,138.2,191.6,135.1z"
		/>
</g>
<g>
	<path class="st16" d="M170.1,136.8c0.7-0.6,1.6-1.3,2.3-1.9c1.9,2.6,4.3,4.8,7.2,6c1.9-1.3,4.1-2.3,4.9-4.7c-0.1,2.3,0,4.7,0.2,7
		c-0.7,4.3-2.6,8.3-5.6,11.4c-0.9,0.7-1.7,1.5-2.7,2.2c-1.4-0.6-2.4,0.4-3.6,1c-1.3,0.7-2.7,1.4-4,1.8c-1.1-1.7-3-2.1-4.5-3.2
		c-1.7-1.6-3.1-3.5-5.2-4.7c-1.7-1.1-3.7-1.1-5.5-1.2c-4.3,0-8.5-0.1-12.8-0.1c-1.2,0-2.3-0.4-3.4-0.9c6.8-0.2,13.6-0.1,20.5-0.1
		c2.9,0,5.8-0.5,8.2-2.3C169,144.8,171,140.8,170.1,136.8z"/>
</g>
<g>
	<path class="st17" d="M304.4,139.9c1.8,3,0.1,6.6,1.4,9.9c0.3-1.8,0.5-3.5,0.6-5.3c0,1.7,0,3.4,0,5.1c0,2.4,0.9,4.8,0.4,7.2
		c-0.9,4,0,8.2-0.9,12.2c-0.9,9.4-2.4,18.7-5.2,27.6c-1.9,5.1-3.9,10.2-5.8,15.3c-0.7,1.5-1.5,3.1-2,4.7
		c-5.1,10.8-11.1,21.3-18.5,30.6c-6,8.1-13.6,14.7-20.5,21.9c-4.4,4.3-9.5,7.8-14.6,11.3c-7.7,5.1-15.7,9.5-24.1,13.2
		c-1.8,0.7-3.5,1.7-5.4,2c-2,0.2-3.9,0.9-5.7,1.7l0.7,0.4c-11.1,3.7-22.5,6.4-34.1,7.4c-8.9,0.1-17.9,0.2-26.8,0.1
		c-8.7,0.1-17.2-1.6-25.6-3.5c-33.9-8.3-64.9-28.5-85.6-56.6c-7.1-8.9-12.5-19-17.3-29.2c-0.4-0.6-0.3-1.4-0.3-2.1
		c7.3,16.2,17.4,31.2,29.9,43.8c21.4,21.9,49.5,37.1,79.5,42.7c12.9,2.6,25.9,2.2,39,2c12.1-0.1,24-2.7,35.6-6.2
		c22.3-7,43-19.2,59.8-35.4c14.2-13.7,25.8-30.3,33.7-48.5C302.5,189.7,306.3,164.6,304.4,139.9z"/>
</g>
<g>
	<path class="st18" d="M188.1,154.8c0.1-3.3,0.1-6.6,0.6-9.8c0.2,2.3,0.4,4.7,0.5,7c0.1-1.3,0.3-2.4,0.4-3.7c1.3,2.2,2.2,4.6,3.2,7
		c0.4,1.4,1.9,1.7,3.1,2.4c1.7,0.7,2.8,2.3,4.6,2.8c3.4,0.9,6.8,1.8,10.3,1.7c7.8,0,15.5,0.1,23.3,0.1c4.7,0,9.4-0.2,14,0.3
		c-18.4,0.7-36.8,0.3-55.2,0.3C190.8,160.8,188.5,158.2,188.1,154.8z"/>
</g>
<g>
	<path class="st19" d="M203.4,149.8c1.2-0.4,2.4-0.6,3.7-1c15.9,0.1,31.9,0,47.8,0l-0.1,0.7c-4.3,0.6-8.6,0.2-12.9,0.3
		c-11.1,0.1-22.2-0.1-33.3,0.2c-2-0.2-4.1,0-6.2,0.3C202.8,150.3,203.2,149.9,203.4,149.8z"/>
</g>
<g>
	<path class="st20" d="M242,149.9c4.3-0.1,8.6,0.2,12.9-0.3c-0.1,4.7-0.1,9.4,0,13.9c-8,0.2-15.9,0.1-23.8,0.1
		c-5.6-0.5-11.4,0.3-17,0.1c-6.8-0.2-13.7,0.5-20.4-0.4l-0.4-0.3c18.4,0,36.8,0.3,55.2-0.3c-4.7-0.5-9.4-0.3-14-0.3
		c0.1-0.3,0.2-0.9,0.2-1.2c-2.8-1.6-6.1-1.9-8.4-4.1c-1.9-1.2-2.9-3.2-4.3-4.9c-4-2.1-8.8-0.4-13-2C219.8,149.8,231,150,242,149.9z"
		/>
</g>
<g>
	<path class="st21" d="M134.3,149.8c0.1,0,0.3-0.1,0.4-0.1c0.9,0,1.8,0,2.7,0c1.1,0.4,2.2,0.9,3.4,0.9c4.3,0,8.5,0.1,12.8,0.1
		c1.9,0,3.9,0.1,5.5,1.2c2.1,1.1,3.5,3.1,5.2,4.7c1.5,1.1,3.4,1.5,4.5,3.2c1.4-0.4,2.8-1,4-1.8c1.1-0.5,2.2-1.7,3.6-1
		c0.9-0.7,1.7-1.5,2.7-2.2c0,0.2-0.1,0.7-0.1,1.1c-0.7,0.7-1.6,1.7-2.8,1.8c-2.6,1.9-5.4,3.6-8.7,4.1c3,1.6,5.5,4,7.9,6.4
		c3.1,3.2,6.7,6,9.9,9.1c1.2,1,2.3,1.8,3.6,2.7c0,5.3,0,10.6,0,15.9c-6.4-1.4-12.1-4.9-16.6-9.7c-3.1-2.3-5.5-5.4-8.6-7.8
		c-2.1-1.7-3.9-3.9-6.2-5.5c-2.1-1.6-3.9-3.6-5.8-5.4c0.5-1.2-0.6-1.9-1.5-2.4c-3-1.8-6.5-2.2-9.6-3.8c-2.4-1.3-4.8-2.9-6.9-4.8
		c-1.3-1.2-1.9-3-3.6-3.6c-2.2,0-4.3,1.8-6.6,1.3C127.1,151.9,130.7,151,134.3,149.8z"/>
</g>
<g>
	<path class="st22" d="M123.8,154c2.3,0.5,4.3-1.3,6.6-1.3c1.7,0.6,2.3,2.6,3.6,3.6c2,1.9,4.5,3.5,6.9,4.8c3.1,1.6,6.6,2,9.6,3.8
		c0.9,0.5,2,1.2,1.5,2.4c-3.4-2.4-7.5-3.8-11.7-3.6c-5.3-0.2-11.1,1.8-13.8,6.6c-3.5,5.4-1.7,12.1-2.3,18.2
		c-0.2-3.7,0.7-7.7-0.6-11.3c-0.9,6.2,0,12.5-0.6,18.7c-0.5-4.7,0.1-9.4-0.6-13.9c-1.7-2.3-3.6-4.8-6.2-6.4c-2-1.5-4.4-2.4-6.2-4.1
		C111.8,164,117,157.5,123.8,154z"/>
</g>
<g>
	<path class="st23" d="M91.7,153.1c0.2,2.1,0.1,4.3,0.7,6.4c1.4,2.4,3.5,4.4,6,5.6c1.6,0.9,2.7,2.2,3.7,3.6c1.6,1.9,1.4,4.5,2.1,6.8
		c-1,4-3.3,7.7-6,10.7c-2.8-0.9-5.3-2.4-7.2-4.6c-1.2-1.5-2.8-2.9-3-5c1.9-2.6,2.7-5.7,3.1-8.8C91.8,163.1,91.4,158.1,91.7,153.1z"
		/>
</g>
<g>
	<path class="st24" d="M109.9,171.4c1.8,1.8,4.1,2.7,6.2,4.1c2.4,1.6,4.4,4,6.2,6.4c0.7,4.6,0.1,9.2,0.6,13.9
		c0.6-6.3-0.3-12.5,0.6-18.7c1.4,3.6,0.4,7.5,0.6,11.3c-0.2,2.8-0.1,5.5-0.1,8.3c-5,0.2-10.1-0.2-15.1,0.1l-0.4,0.2v-0.3
		C109.4,188.3,107.5,179.7,109.9,171.4z"/>
</g>
<g>
	<path class="st25" d="M104.2,175.5c0.3-1.4,0.6-2.7,1.1-4c0.1,1,0.1,2,0.1,3c-1.8,8-7.4,14.6-14.4,18.6c-4.9,2.9-10.5,3.8-16.1,4
		c-7.9-0.1-15.7-0.1-23.7,0l-0.4-0.3l0.6-0.2l0.7-0.2c5.5,0.1,11.1,0,16.7,0.1c5.7,0,11.6,0,17.1-2c4.7-1.7,8.9-4.5,12.2-8.2
		C101,183.2,103.2,179.6,104.2,175.5z"/>
</g>
<g>
	<path class="st26" d="M84.5,180.1c1.4-0.9,2.6-1.9,3.5-3.3c0.2,2,1.8,3.4,3,5c1.9,2.1,4.5,3.7,7.2,4.6c-3.3,3.7-7.7,6.5-12.2,8.2
		c0-0.7,0.2-1.5-0.1-2.1c-2.1-2.4-5.1-3.8-7.3-6.1c-0.7-1.2,0.1-2.3,0.5-3.5l0.1-0.3C81.1,182,82.9,181.2,84.5,180.1z"/>
</g>
<g>
	<path class="st27" d="M76.2,182c3.4,0.1,6.4-1.8,9.4-3.3c-0.2,0.3-0.7,1-1.1,1.3c-1.6,1.1-3.4,1.9-5.3,2.3
		c-0.9-0.3-1.8-0.1-2.4,0.5c-8.2,0.1-16.3,0.1-24.5,0h-0.7c0.1,4.6,0,9.1-0.1,13.6l-0.6,0.2c0.1-4.9,0-9.9,0.1-14.8
		C59.4,182.1,67.8,182.1,76.2,182z"/>
</g>
<g>
	<path class="st28" d="M189,179.8c2.2,1.3,4.8,2,7.3,2.3c1,0.1,2,0.3,3,0.3c17.3,0.1,34.7,0,52,0.1c-4,0.9-8.3,0.4-12.3,0.5
		c-6.9,0.1-13.9-0.2-20.6,1.4c-0.4,0.7-1,1.6-1.5,2.2c1.8,1.4,3.1,3.2,4.7,4.7c1.5,1.4,3.5,1.8,5.3,2.8c3.5,2.2,7.8,0.6,11.7,1.5
		c-6.7,0.9-13.5,0.1-20.3,0.5c-0.7,0.2-1.5,0.4-2.2,0.7c-5.7,0.2-11.5,0-17.3,0.1c-3.3,0.1-6.5-0.4-9.7-1.1
		C189,190.4,189,185.1,189,179.8z"/>
</g>
<g>
	<path class="st29" d="M196.4,182.1c0.4-0.1,1.2-0.3,1.6-0.3c5.7,0.3,11.6,0.1,17.3,0.2c13.6,0.1,27.1,0.1,40.7,0c0,0.4,0,1.2,0,1.6
		c-0.3,4.6,0.3,9-0.3,13.6c-0.4-4.9-0.1-9.8-0.2-14.7c-1.4,0-2.7,0-3.9,0.1c-17.3-0.1-34.7,0-52-0.1
		C198.3,182.3,197.4,182.2,196.4,182.1z"/>
</g>
<g>
	<path class="st30" d="M76.7,183c0.6-0.6,1.6-0.9,2.4-0.5l-0.1,0.3C78.3,183.3,77.6,183.3,76.7,183z"/>
</g>
<g>
	<path class="st31" d="M251.4,182.6c1.3-0.1,2.7-0.1,3.9-0.1c0.1,4.9-0.2,9.8,0.2,14.7c-3.5-0.5-7-0.3-10.4-0.3
		c-9.7,0.1-19.4,0.2-29.1,0c0.7-0.3,1.5-0.5,2.2-0.7c6.7-0.4,13.6,0.3,20.3-0.5c-3.8-0.9-8.2,0.7-11.7-1.5c-1.8-0.9-3.8-1.3-5.3-2.8
		c-1.6-1.5-3-3.3-4.7-4.7c0.5-0.7,1.1-1.5,1.5-2.2c6.8-1.6,13.8-1.3,20.6-1.4C243.1,182.9,247.4,183.4,251.4,182.6z"/>
</g>
<g>
	<path class="st32" d="M51.6,183h0.7c0,4.5,0,8.9-0.1,13.5l-0.7,0.2C51.6,192.1,51.6,187.6,51.6,183z"/>
</g>
<g>
	<path class="st33" d="M52.3,183c8.2,0,16.3,0.1,24.5,0c0.9,0.3,1.6,0.3,2.3-0.2c-0.4,1.1-1.3,2.3-0.5,3.5c2.2,2.2,5.2,3.6,7.3,6.1
		c0.3,0.6,0.1,1.4,0.1,2.1c-5.4,2-11.4,2-17.1,2c-5.5,0-11.1,0.1-16.7-0.1C52.4,192,52.3,187.4,52.3,183z"/>
</g>
<g>
	<path class="st34" d="M295,212.1c1.9-5.1,3.9-10.2,5.8-15.3c0.5,2.3-0.6,4.5-1.4,6.6c-1.8,5-3.5,10-6,14.8
		c-2.6,4.8-4.8,9.7-7.7,14.4c-4.7,7.7-9.9,15.1-15.9,21.8c-2.9,4-6.6,7.2-10,10.7c-1.8,1.7-3.5,3.7-6,4.1
		c6.8-7.3,14.6-13.8,20.5-21.9c7.4-9.4,13.4-19.8,18.5-30.6C294.3,215.5,294.9,213.8,295,212.1z"/>
</g>
<g>
	<path class="st35" d="M293.1,216.7c0.5-1.6,1.2-3.2,2-4.7C294.9,213.8,294.3,215.5,293.1,216.7z"/>
</g>
<g>
	<path class="st35" d="M204.1,297.5c1.8-0.9,3.7-1.5,5.7-1.7c-1.2,1.5-3.2,1.8-5,2.1L204.1,297.5z"/>
</g>
</svg>
